<?xml version="1.0" encoding="UTF-8"?>
<!DOCTYPE svg PUBLIC "-//W3C//DTD SVG 1.1//EN" "http://www.w3.org/Graphics/SVG/1.1/DTD/svg11.dtd">
<!-- Creator: CorelDRAW -->
<svg xmlns="http://www.w3.org/2000/svg" xml:space="preserve" width="100mm" height="40mm" style="shape-rendering:geometricPrecision; text-rendering:geometricPrecision; image-rendering:optimizeQuality; fill-rule:evenodd; clip-rule:evenodd"
viewBox="0 0 100 40"
 xmlns:xlink="http://www.w3.org/1999/xlink">
 <defs>
  <style type="text/css">
   <![CDATA[
    .fil1 {fill:white}
    .fil0 {fill:white;fill-rule:nonzero}
   ]]>
  </style>
 </defs>
 <g id="Слой_x0020_1">
  <metadata id="CorelCorpID_0Corel-Layer"/>
  <polygon class="fil0" points="11.6473,20.2429 3.0028,20.2429 3.5412,23.8216 7.2461,23.283 6.6441,20.845 11.5525,20.4966 "/>
  <path class="fil0" d="M19.418 14.5475c0.7437,0 1.9646,0.0342 3.2018,0.4417 0.6346,0.2096 1.0662,0.4869 1.5403,0.4931 0.3358,0.0048 2.823,-0.3101 6.6821,-0.5265 6.2602,-0.3517 16.141,-0.0798 16.1829,0.1623 -3.404,-0.657 -27.6071,-0.5706 -27.6071,-0.5706z"/>
  <path class="fil0" d="M45.5922 9.8188l1.8647 0 -0.9541 0.2562c0,0 -0.231,0.0582 -0.306,0.1211 -0.0634,0.0518 -0.5847,0.7497 -0.7765,0.9138 -0.3646,0.3107 -0.8656,0.1823 -1.2355,0.2755 0.0455,-0.2127 0.1336,-0.7833 0.2505,-1.1856l1.1569 -0.381z"/>
  <path class="fil0" d="M25.7379 17.8772c0.0026,0.0877 -2.3611,-2.6401 -6.1684,-2.5893 -3.8078,-0.0514 -6.1716,2.677 -6.1687,2.5893 -0.1337,0.0069 2.2127,-2.9042 6.1687,-2.8638 3.9555,-0.0404 6.3019,2.8707 6.1684,2.8638z"/>
  <path class="fil0" d="M87.022 17.718c0.0031,0.0891 -2.4107,-2.6967 -6.2996,-2.6449 -3.8888,-0.0518 -6.3032,2.734 -6.3005,2.6449 -0.1358,0.0069 2.2604,-2.9666 6.3005,-2.9253 4.0403,-0.0413 6.4364,2.9322 6.2996,2.9253z"/>
  <path class="fil0" d="M24.5942 18.4698c-1.3203,-1.326 -3.1542,-2.1482 -5.1768,-2.1482 -2.0225,0 -3.851,0.8222 -5.1764,2.1482 -1.2369,1.2315 -2.0333,2.9081 -2.1327,4.7623 0,0 0.0471,-0.0676 0.1362,-0.1938 0.393,-1.3099 1.31,-2.4464 2.5675,-3.2585 1.2574,-0.8069 2.8449,-1.2942 4.579,-1.2942 3.4269,0 6.3087,1.9067 7.121,4.4799 0.1414,0.1729 0.2201,0.2666 0.2201,0.2666 -0.105,-1.8542 -0.9014,-3.5308 -2.1379,-4.7623z"/>
  <path class="fil0" d="M85.9023 18.4698c-1.3256,-1.326 -3.1594,-2.1482 -5.182,-2.1482 -2.0224,0 -3.8511,0.8222 -5.1766,2.1482 -1.236,1.2315 -2.0278,2.9081 -2.1321,4.7623 0,0 0.0467,-0.0676 0.1358,-0.1938 0.393,-1.3099 1.3151,-2.4464 2.5673,-3.2585 1.2576,-0.8069 2.8452,-1.2942 4.5795,-1.2942 3.4319,0 6.3137,1.9067 7.1263,4.4799 0.1357,0.1729 0.2143,0.2666 0.2143,0.2666 -0.1043,-1.8542 -0.9013,-3.5308 -2.1325,-4.7623z"/>
  <path class="fil0" d="M7.2482 17.6001c-0.1938,-0.5763 -0.3539,-1.1496 -0.2322,-0.4716 0.1214,0.678 0.5142,1.9748 1.2108,1.9748 0.6967,0 0.7509,-0.0587 0.7249,-0.3238 -0.0252,-0.2655 0.0563,-0.1478 -0.4452,-0.8256 -0.5019,-0.678 -0.351,-0.7949 -0.5347,-1.0905 -0.0685,-0.1105 0.0303,0.1693 0.0462,0.2945 0.0515,0.4198 0.1259,1.4147 -0.0772,1.5331 -0.2032,0.1179 -0.5741,-0.7371 -0.6926,-1.0909z"/>
  <path class="fil0" d="M5.9868 17.6001c-0.2305,-0.5763 -0.4333,-1.1496 -0.2492,-0.4716 0.1838,0.678 0.6677,1.9748 1.2394,1.9748 0.5716,0 0.6089,-0.0587 0.5549,-0.3238 -0.0541,-0.2655 0.0276,-0.1478 -0.4686,-0.8256 -0.4961,-0.678 -0.3958,-0.796 -0.5742,-1.0905 0,0 0.0413,0.1474 0.0742,0.2945 0.093,0.4175 0.2799,1.4147 0.1275,1.5331 -0.1523,0.1179 -0.5626,-0.7371 -0.704,-1.0909z"/>
  <polygon class="fil0" points="88.3397,21.0981 95.0841,21.4779 88.8496,21.8348 "/>
  <polygon class="fil0" points="6.4618,24.2015 7.1665,25.7528 5.1087,25.9426 4.8078,26.3544 9.7159,26.608 8.0529,25.8792 "/>
  <path class="fil0" d="M46.278 14.1205c-10.4429,-0.2577 -22.2777,-0.0446 -28.0927,0.2808 5.8335,-0.44 16.4766,-0.6858 27.3953,-0.8231l0.6974 0.5423z"/>
  <path class="fil0" d="M46.0212 12.7955l-0.429 -0.2783 0.0644 -0.7665c8.5447,0.1886 16.2479,0.7331 21.5457,1.2366l0.4474 -2.3798 0 2.1507 -0.2981 0.2432c1.5185,0.1457 2.8366,0.2871 3.9124,0.4154 6.1785,-0.0077 10.2732,0.0064 10.2732,0.0064 -1.8034,0 -4.7654,0.0827 -7.7666,1.072 -1.1129,0.3673 -1.9685,0.8194 -2.7912,1.0478 -0.1331,2.2542 -1.3424,4.5716 -2.7962,6.2033 -0.4811,0.5422 -1.1382,1.3658 -1.7899,1.6986 -0.5051,0.2577 -1.2313,0.272 -1.7847,0.3448 -1.7573,0.2068 -3.5376,0.2545 -5.3055,0.2472 2.2786,-0.0891 4.7517,-0.1451 6.9372,-0.8639 2.002,-1.8858 3.8988,-4.6014 3.9402,-7.489 -0.0489,0.0031 -0.097,0.0068 -0.1463,0.0074 -0.8147,0.0104 -6.8486,-0.7534 -16.2101,-1.2785 -1.7893,-0.1001 -3.7008,-0.1797 -5.6803,-0.2404l-0.9452 -0.6136c7.3296,-0.0843 14.6829,-0.121 20.6931,-0.1363 -8.3272,-0.4061 -15.5756,-0.5947 -21.8705,-0.6271z"/>
  <path class="fil0" d="M36.7127 11.6978c3.1782,-1.5326 9.2834,-4.3856 13.2236,-5.6556 0.2867,-0.0923 0.5444,-0.1327 0.8451,-0.1315 21.8202,0.0869 29.862,7.2327 46.2157,10.215 -21.9424,-3.6881 -23.5345,-8.8763 -45.7373,-8.9576 -0.3662,-0.0015 -0.6801,0.0582 -1.0202,0.1944 -3.1944,1.2796 -7.131,3.1795 -9.4369,4.3227 1.2402,0.0057 2.4694,0.0209 3.6839,0.0424l0.0608 -0.176 0.5695 -0.0163 -0.1739 0.9976 -0.7284 -0.0157 0.3517 0.273c-20.0774,-0.0268 -30.0531,1.5703 -34.1302,2.7021 -0.2605,0.0723 -0.4261,0.3196 -0.3937,0.5884l0.3705 3.0897 -0.4986 0.1965 -1.5947 -4.4185c-0.0555,-0.1541 -1.675,-0.1195 -4.2402,-0.2148 5.9851,-1.235 19.9491,-2.4699 32.6333,-3.0358z"/>
  <path class="fil1" d="M49.4633 34.016l-1.9322 0 0.1333 -0.6373 1.9326 0 -0.1337 0.6373zm-1.7989 -0.6373l0.0823 -0.3933 1.7494 -8.3578 4.1687 0c0.7168,0 1.2766,0.0744 1.6742,0.2208 0.4,0.1483 0.7236,0.4173 0.9685,0.811 0.2449,0.3913 0.3671,0.8676 0.3671,1.4274 0,0.7975 -0.2381,1.4578 -0.7168,1.9761 -0.4787,0.5178 -1.2023,0.8391 -2.1708,0.9637 0.2473,0.2208 0.4811,0.5139 0.6975,0.8767 0.3256,0.5519 0.6769,1.2766 1.0571,2.1719l0.1274 0.3035 -2.0414 0 -0.1254 -0.3272c-0.1666,-0.4245 -0.3771,-0.9289 -0.6311,-1.5144 -0.2642,-0.6053 -0.5463,-1.014 -0.8458,-1.2217 -0.1835,-0.1246 -0.5028,-0.1859 -0.9597,-0.1859l-0.7869 0 -0.6037 2.8781 -0.078 0.3711 -1.9326 0zm8.0046 0c0.0846,0.2041 0.1705,0.4166 0.2579,0.6373l-2.0766 0c-0.0558,-0.1784 -0.1302,-0.3909 -0.2227,-0.6373l2.0414 0zm-5.0976 -4.6592l1.0255 0c1.0381,0 1.7268,-0.0613 2.0655,-0.186 0.339,-0.1222 0.6057,-0.3168 0.7979,-0.5811 0.1903,-0.2667 0.2865,-0.5424 0.2865,-0.8328 0,-0.3434 -0.1377,-0.599 -0.4154,-0.7695 -0.1705,-0.1028 -0.54,-0.1531 -1.1082,-0.1531l-2.1248 0 -0.527 2.5225zm6.3916 5.2965l0.1329 -0.6373 7.336 0 -0.1349 0.6373 -7.334 0zm0.1329 -0.6373l0.0598 -0.2849 1.768 -8.4662 6.9601 0 -0.3256 1.5694 -5.0275 0 -0.4482 2.1312 4.8593 0 -0.326 1.5694 -4.8613 0 -0.5879 2.549 5.4627 0 -0.1547 0.7315 -0.0427 0.2006 -7.336 0zm16.1215 0.6373l-1.8013 0 -0.256 -0.6373 2.1902 0 -0.1329 0.6373zm-2.0573 -0.6373l-0.0502 -0.1243 -2.2293 -5.5469 -1.1509 5.5078 -0.034 0.1634 -1.7992 0 0.0383 -0.184 1.7874 -8.5671 1.8052 0 2.5423 6.2824 1.3138 -6.2824 1.7926 0 -1.8052 8.6526 -0.0206 0.0985 -2.1902 0zm-3.4644 0l-0.1333 0.6373 -1.7989 0 0.133 -0.6373 1.7992 0zm13.1135 0.6373l-2.5794 0 0.1337 -0.6373 2.5787 0 -0.133 0.6373zm-2.4457 -0.6373l0.0083 -0.0408 2.0438 -9.7472 -3.6693 0 0.4339 -2.0928 9.8632 0 -0.4344 2.0928 -3.6227 0 -2.0418 9.7769 -0.0023 0.0111 -2.5787 0z"/>
  <path class="fil0" d="M21.2431 29.5099l2.5142 0.3937c-0.4914,1.4048 -1.2276,2.4801 -2.2068,3.2235 -0.9819,0.7429 -2.1304,1.1132 -3.4478,1.1132 -1.4816,0 -2.6411,-0.4605 -3.4763,-1.3815 -0.8351,-0.9241 -1.2529,-2.2617 -1.2529,-4.0135 0,-1.425 0.2793,-2.725 0.8407,-3.9083 0.559,-1.1805 1.3348,-2.0841 2.3254,-2.7108 0.993,-0.6262 2.0735,-0.9384 3.2417,-0.9384 1.3119,0 2.3729,0.3616 3.1832,1.0872 0.8094,0.7259 1.2861,1.7166 1.4301,2.9671l-2.3899 0.239c-0.1325,-0.7288 -0.3865,-1.2561 -0.7647,-1.5825 -0.3779,-0.3264 -0.8803,-0.4898 -1.5093,-0.4898 -0.6888,0 -1.3321,0.2156 -1.9298,0.6472 -0.5982,0.434 -1.0753,1.1101 -1.4338,2.0284 -0.3584,0.9182 -0.5388,1.836 -0.5388,2.7543 0,1.0025 0.2338,1.7751 0.6999,2.323 0.4656,0.5448 1.0468,0.8189 1.7411,0.8189 0.6429,0 1.2355,-0.2156 1.7715,-0.65 0.5389,-0.4312 0.9396,-1.0725 1.2023,-1.9207zm9.227 2.4343l-3.6041 0 -1.0895 2.0746 -1.9215 0 5.1379 -9.3884 2.0782 0 1.4748 9.3884 -1.7731 0 -0.3027 -2.0746zm-0.2306 -1.5627l-0.527 -3.7794 -2.1945 3.7794 2.7215 0zm5.3558 3.6373l-1.8704 0 1.9025 -9.3884 4.0353 0c0.6943,0 1.2363,0.0744 1.6208,0.2207 0.3873,0.1484 0.7007,0.4174 0.9376,0.8111 0.2374,0.3912 0.3557,0.8675 0.3557,1.4273 0,0.7976 -0.2307,1.4579 -0.6939,1.9761 -0.4637,0.5179 -1.1639,0.8392 -2.1015,0.9638 0.2393,0.2207 0.4656,0.5139 0.6749,0.8767 0.4189,0.7342 0.8826,1.7727 1.3965,3.1127l-2.0101 0c-0.1606,-0.529 -0.4763,-1.3554 -0.9479,-2.479 -0.256,-0.6053 -0.529,-1.0139 -0.8189,-1.2216 -0.1777,-0.1246 -0.4871,-0.186 -0.9294,-0.186l-0.7615 0 -0.7897 3.8866zm1.0729 -5.2965l0.9926 0c1.0053,0 1.6719,-0.0614 1.9999,-0.186 0.328,-0.1222 0.5863,-0.3169 0.7722,-0.5811 0.1844,-0.2667 0.2774,-0.5424 0.2774,-0.8328 0,-0.3434 -0.1334,-0.599 -0.402,-0.7695 -0.1653,-0.1029 -0.523,-0.1531 -1.0729,-0.1531l-2.0572 0 -0.51 2.5225z"/>
 </g>
</svg>
