<?xml version="1.0" encoding="UTF-8"?>
<!DOCTYPE svg PUBLIC "-//W3C//DTD SVG 1.1//EN" "http://www.w3.org/Graphics/SVG/1.1/DTD/svg11.dtd">
<!-- Creator: CorelDRAW -->
<svg xmlns="http://www.w3.org/2000/svg" xml:space="preserve" width="210mm" height="297mm" style="shape-rendering:geometricPrecision; text-rendering:geometricPrecision; image-rendering:optimizeQuality; fill-rule:evenodd; clip-rule:evenodd"
viewBox="0 0 210 297"
 xmlns:xlink="http://www.w3.org/1999/xlink"
 version="1.1">
 <defs>
  <style type="text/css">
   <![CDATA[
    .fil0 {fill:white}
   ]]>
  </style>
 </defs>
 <g id="Слой_x0020_1">
  <metadata id="CorelCorpID_0Corel-Layer"/>
  <polygon class="fil0" points="9.8151,65.564 32.8374,65.564 32.8374,88.5743 9.8151,88.5743 "/>
  <polygon class="fil0" points="57.4309,65.564 200.183,65.564 200.183,88.5743 57.4309,88.5743 "/>
  <polygon class="fil0" points="9.8151,113.18 32.8374,113.18 32.8374,136.19 9.8151,136.19 "/>
  <polygon class="fil0" points="57.4309,113.18 200.183,113.18 200.183,136.19 57.4309,136.19 "/>
  <polygon class="fil0" points="9.8151,160.796 32.8374,160.796 32.8374,183.806 9.8151,183.806 "/>
  <polygon class="fil0" points="57.4309,160.796 200.183,160.796 200.183,183.806 57.4309,183.806 "/>
  <polygon class="fil0" points="9.8151,208.412 32.8374,208.412 32.8374,231.422 9.8151,231.422 "/>
  <polygon class="fil0" points="57.4309,208.412 200.183,208.412 200.183,231.422 57.4309,231.422 "/>
 </g>
</svg>
